<svg enable-background="new 0 0 24 24" stroke="currentColor" stroke-width=".8" height="512" viewBox="0 0 24 24" width="512" xmlns="http://www.w3.org/2000/svg"><path d="m22.5 24h-21c-.827 0-1.5-.673-1.5-1.5v-21c0-.827.673-1.5 1.5-1.5h21c.827 0 1.5.673 1.5 1.5v21c0 .827-.673 1.5-1.5 1.5zm-21-23c-.275 0-.5.224-.5.5v21c0 .276.225.5.5.5h21c.275 0 .5-.224.5-.5v-21c0-.276-.225-.5-.5-.5z"/><path d="m23.5 8h-23c-.276 0-.5-.224-.5-.5s.224-.5.5-.5h23c.276 0 .5.224.5.5s-.224.5-.5.5z"/><path d="m7.5 24c-.276 0-.5-.224-.5-.5v-16c0-.276.224-.5.5-.5s.5.224.5.5v16c0 .276-.224.5-.5.5z"/><path d="m16.5 24c-.276 0-.5-.224-.5-.5v-16c0-.276.224-.5.5-.5s.5.224.5.5v16c0 .276-.224.5-.5.5z"/></svg>
